<svg width="157" height="29" viewBox="0 0 157 29" fill="none" xmlns="http://www.w3.org/2000/svg">
<g clip-path="url(#clip0)">
<path d="M12.0675 24.9574C15.2795 24.978 18.3685 23.6895 20.6584 21.3741C22.9484 19.0587 24.2526 15.9049 24.2855 12.6032L20.005 12.5669C19.9922 14.1604 19.52 15.7141 18.6482 17.0318C17.7764 18.3494 16.544 19.3716 15.107 19.9693C13.67 20.5669 12.0929 20.7131 10.5751 20.3893C9.05725 20.0656 7.6669 19.2864 6.57986 18.1503C5.49281 17.0143 4.75789 15.5724 4.46803 14.007C4.17816 12.4416 4.34637 10.823 4.95139 9.35584C5.55641 7.88871 6.57106 6.63894 7.86703 5.7646C9.163 4.89025 10.6821 4.43059 12.2322 4.44374C12.5756 4.44665 13.1521 4.45154 13.1521 4.45154C14.0533 3.03932 15.1549 1.77364 16.4205 0.696526C15.0811 0.215442 13.6747 -0.0392105 12.2561 -0.0575178C10.6582 -0.0702435 9.07364 0.240669 7.59272 0.857471C6.11179 1.47427 4.76356 2.38488 3.62498 3.53731C2.4864 4.68973 1.57978 6.06141 0.956892 7.57401C0.333999 9.08662 0.00703088 10.7105 -0.00534893 12.353C-0.0177287 13.9955 0.284729 15.6245 0.884747 17.1468C1.48477 18.6691 2.3706 20.0551 3.49167 21.2255C4.61274 22.3959 5.94709 23.3279 7.41853 23.9682C8.88998 24.6085 10.4697 24.9447 12.0675 24.9574Z" fill="#00D647"/>
<path d="M25.5134 0.143061C22.3015 0.122478 19.2124 1.41093 16.9225 3.72636C14.6326 6.04179 13.3284 9.19554 13.2954 12.4972L17.5637 12.5334C17.5789 10.9411 18.0528 9.38906 18.9256 8.07339C19.7983 6.75772 21.0308 5.73742 22.4672 5.14133C23.9037 4.54525 25.4798 4.40012 26.9965 4.72428C28.5132 5.04843 29.9024 5.82734 30.9887 6.96262C32.075 8.09789 32.8097 9.53863 33.1 11.1029C33.3903 12.6671 33.2231 14.2847 32.6196 15.7513C32.0161 17.2179 31.0034 18.4678 29.7093 19.3432C28.4152 20.2185 26.8978 20.68 25.3487 20.6693C25.0053 20.6664 24.4288 20.6615 24.4288 20.6615C23.5277 22.0738 22.4261 23.3395 21.1604 24.4165C22.5016 24.862 23.9039 25.0826 25.3134 25.0696C28.5289 25.0969 31.6233 23.8099 33.9157 21.4919C36.2082 19.1739 37.511 16.0146 37.5376 12.7092C37.5641 9.40371 36.3122 6.22279 34.0572 3.86619C31.8023 1.50959 28.729 0.170336 25.5134 0.143061Z" fill="#FFCB01"/>
</g>
<path d="M55.5952 18.4478C55.0376 18.7446 54.436 18.8782 53.7904 18.8782C52.5432 18.8782 51.927 18.24 51.927 16.934V10.3296H56.3729V6.81218H51.927V1.82549H47.9359V6.81218H45.3828V10.3296H47.9359V16.934C47.9359 18.6556 48.3614 20.0061 49.2125 20.9708C50.0635 21.9504 51.3254 22.4253 53.0128 22.4253C54.1719 22.4253 55.3604 22.1878 56.5636 21.6981L55.5952 18.4478Z" fill="white"/>
<path d="M65.1473 22.6182C67.2308 22.6182 68.8595 21.8465 70.0334 20.303V22.1878H74.0391V6.81218H70.0334V8.66735C68.8595 7.15353 67.2308 6.38178 65.1473 6.38178C63.0197 6.38178 61.2296 7.15353 59.7917 8.69703C58.3537 10.2405 57.6347 12.1699 57.6347 14.5C57.6347 16.8153 58.3537 18.7446 59.7917 20.2881C61.2296 21.8465 63.0197 22.6182 65.1473 22.6182ZM65.8369 19.0266C64.5897 19.0266 63.5626 18.6111 62.7703 17.7503C61.9633 16.9043 61.5671 15.806 61.5671 14.4703C61.5671 13.1643 61.9633 12.0809 62.7703 11.2349C63.5626 10.4038 64.5897 9.97339 65.8369 9.97339C67.0548 9.97339 68.0819 10.4038 68.9182 11.2497C69.7399 12.1105 70.1654 13.1791 70.1654 14.4703C70.1654 15.7912 69.7399 16.8746 68.9182 17.7354C68.0819 18.5962 67.0548 19.0266 65.8369 19.0266Z" fill="white"/>
<path d="M86.7899 6.38178C84.7357 6.38178 83.107 7.18321 81.8891 8.7564V6.81218H77.9274V22.1878H81.8891V14.589C81.8891 13.2385 82.2119 12.1551 82.8869 11.3388C83.5619 10.5374 84.4422 10.1218 85.5574 10.1218C86.6138 10.1218 87.4208 10.4632 87.9784 11.1459C88.5213 11.8286 88.8001 12.7636 88.8001 13.9509V22.1878H92.7765V13.194C92.7765 11.0865 92.2629 9.42426 91.2358 8.20727C90.2087 6.99028 88.7267 6.38178 86.7899 6.38178Z" fill="white"/>
<path d="M107.919 6.81218V8.60798C106.745 7.12385 105.146 6.38178 103.121 6.38178C100.92 6.38178 99.1299 7.12385 97.7213 8.5783C96.3127 10.0328 95.6083 11.9028 95.6083 14.1883C95.6083 16.4145 96.3126 18.2697 97.7359 19.7687C99.1592 21.2677 100.949 22.0097 103.121 22.0097C105.131 22.0097 106.73 21.2677 107.919 19.7835V21.6387C107.89 22.8408 107.552 23.8204 106.907 24.5624C106.261 25.3193 105.337 25.6904 104.133 25.6904C102.314 25.6904 100.993 25.0225 100.172 23.7016L96.7088 24.9483C98.1761 27.6494 100.612 29 104.045 29C106.393 29 108.286 28.3173 109.724 26.9519C111.162 25.5865 111.895 23.8055 111.895 21.6387V6.81218H107.919ZM103.811 18.3884C102.549 18.3884 101.522 18.0026 100.729 17.216C99.9369 16.4442 99.5407 15.435 99.5407 14.1883C99.5407 12.9565 99.9369 11.9473 100.729 11.1755C101.522 10.4038 102.549 10.0031 103.811 10.0031C105.028 10.0031 106.026 10.4038 106.818 11.1755C107.611 11.9473 108.007 12.9565 108.007 14.1883C108.007 15.435 107.611 16.4442 106.818 17.216C106.026 18.0026 105.028 18.3884 103.811 18.3884Z" fill="white"/>
<path d="M115.784 22.1878H119.745V0H115.784V22.1878Z" fill="white"/>
<path d="M130.985 22.6182C132.819 22.6182 134.374 22.1878 135.651 21.2973C136.927 20.4217 137.822 19.3976 138.321 18.24L134.741 17.1714C134.037 18.5368 132.804 19.2047 131.044 19.2047C129.723 19.2047 128.681 18.893 127.948 18.2549C127.199 17.6167 126.759 16.7707 126.627 15.717H138.439C138.497 15.3905 138.527 14.9156 138.527 14.2922C138.527 12.0215 137.822 10.1366 136.414 8.63767C135.005 7.13869 133.098 6.38178 130.677 6.38178C128.314 6.38178 126.392 7.15353 124.925 8.69703C123.458 10.2405 122.724 12.1699 122.724 14.5C122.724 16.934 123.487 18.9079 125.013 20.392C126.539 21.8762 128.534 22.6182 130.985 22.6182ZM126.627 13.194C126.744 12.2738 127.155 11.4724 127.889 10.7897C128.623 10.1218 129.532 9.78045 130.647 9.78045C131.792 9.78045 132.716 10.107 133.435 10.76C134.14 11.413 134.55 12.2293 134.653 13.194H126.627Z" fill="white"/>
<path d="M152.994 0V8.66735C151.82 7.15353 150.192 6.38178 148.108 6.38178C145.981 6.38178 144.191 7.15353 142.753 8.69703C141.315 10.2405 140.596 12.1699 140.596 14.5C140.596 16.8153 141.315 18.7446 142.753 20.2881C144.191 21.8465 145.981 22.6182 148.108 22.6182C150.177 22.6182 151.806 21.8465 152.994 20.303V22.1878H157V0H152.994ZM148.798 19.0266C147.551 19.0266 146.524 18.6111 145.731 17.7503C144.924 16.9043 144.528 15.806 144.528 14.4703C144.528 13.1643 144.924 12.0809 145.731 11.2349C146.524 10.4038 147.551 9.97339 148.798 9.97339C150.016 9.97339 151.043 10.4038 151.879 11.2497C152.701 12.1105 153.126 13.1791 153.126 14.4703C153.126 15.7912 152.701 16.8746 151.879 17.7354C151.043 18.5962 150.016 19.0266 148.798 19.0266Z" fill="white"/>
<defs>
<clipPath id="clip0">
<rect width="137.694" height="25.2174" fill="white"/>
</clipPath>
</defs>
</svg>
