<svg width="21" height="21" viewBox="0 0 21 21" fill="none" xmlns="http://www.w3.org/2000/svg">
<path d="M10.3029 19.7244C15.6429 19.7244 19.9719 15.4488 19.9719 10.1747C19.9719 4.90054 15.6429 0.625 10.3029 0.625C4.96278 0.625 0.633789 4.90054 0.633789 10.1747C0.633789 15.4488 4.96278 19.7244 10.3029 19.7244Z" fill="#EAA97D"/>
<path d="M10.3024 16.993C14.1154 16.993 17.2064 13.9401 17.2064 10.1742C17.2064 6.40833 14.1154 3.35547 10.3024 3.35547C6.48946 3.35547 3.39844 6.40833 3.39844 10.1742C3.39844 13.9401 6.48946 16.993 10.3024 16.993Z" fill="#FFEA92"/>
<path d="M10.3019 20.3494C4.62143 20.3494 0 15.785 0 10.1744C0 4.56375 4.62143 0 10.3019 0C15.9823 0 20.6037 4.56406 20.6037 10.1747C20.6037 15.7853 15.9826 20.3494 10.3019 20.3494ZM10.3019 1.25C5.31911 1.25 1.26563 5.25375 1.26563 10.1747C1.26563 15.0959 5.31942 19.0997 10.3019 19.0997C15.2843 19.0997 19.3381 15.0959 19.3381 10.1747C19.3384 5.25375 15.2846 1.25 10.3019 1.25Z" fill="#3762CC"/>
<path d="M10.8516 4.60094L12.1406 7.18094C12.2298 7.35938 12.4023 7.48312 12.6019 7.51187L15.4847 7.92563C15.9872 7.99781 16.1878 8.6075 15.8242 8.9575L13.7385 10.9656C13.5942 11.1047 13.5284 11.305 13.5622 11.5012L14.0546 14.3369C14.1403 14.8309 13.6151 15.2078 13.1658 14.9747L10.5874 13.6359C10.4089 13.5434 10.1957 13.5434 10.0172 13.6359L7.43882 14.9747C6.98953 15.2081 6.46429 14.8312 6.55004 14.3369L7.04237 11.5012C7.07654 11.305 7.01072 11.1047 6.86613 10.9656L4.78038 8.9575C4.41682 8.6075 4.61743 7.99781 5.11988 7.92563L8.00266 7.51187C8.20231 7.48312 8.37475 7.35938 8.46398 7.18094L9.75302 4.60094C9.97767 4.15125 10.6266 4.15125 10.8516 4.60094Z" fill="#EAA97D"/>
</svg>
