<svg width="20" height="20" viewBox="0 0 20 20" fill="none" xmlns="http://www.w3.org/2000/svg">
<path d="M5.83341 18.3333H3.33341C2.89139 18.3333 2.46746 18.1577 2.1549 17.8452C1.84234 17.5326 1.66675 17.1087 1.66675 16.6667V10.8333C1.66675 10.3913 1.84234 9.96737 2.1549 9.65481C2.46746 9.34225 2.89139 9.16666 3.33341 9.16666H5.83341M11.6667 7.49999V4.16666C11.6667 3.50362 11.4034 2.86773 10.9345 2.39889C10.4657 1.93005 9.82979 1.66666 9.16675 1.66666L5.83341 9.16666V18.3333H15.2334C15.6354 18.3379 16.0254 18.197 16.3317 17.9367C16.6379 17.6763 16.8398 17.3141 16.9001 16.9167L18.0501 9.41666C18.0863 9.17779 18.0702 8.93389 18.0029 8.70187C17.9355 8.46984 17.8185 8.25524 17.66 8.07292C17.5014 7.8906 17.3051 7.74493 17.0847 7.646C16.8643 7.54708 16.625 7.49725 16.3834 7.49999H11.6667Z" stroke="black" stroke-width="1.4" stroke-linecap="round" stroke-linejoin="round"/>
</svg>
