<svg width="20" height="20" viewBox="0 0 20 20" fill="none" xmlns="http://www.w3.org/2000/svg">
<path d="M15.8333 2.5H4.16667C3.24619 2.5 2.5 3.24619 2.5 4.16667V15.8333C2.5 16.7538 3.24619 17.5 4.16667 17.5H15.8333C16.7538 17.5 17.5 16.7538 17.5 15.8333V4.16667C17.5 3.24619 16.7538 2.5 15.8333 2.5Z" stroke="#F95800" stroke-width="1.4" stroke-linecap="round" stroke-linejoin="round"/>
<path d="M7.08325 8.33333C7.77361 8.33333 8.33325 7.77368 8.33325 7.08333C8.33325 6.39297 7.77361 5.83333 7.08325 5.83333C6.3929 5.83333 5.83325 6.39297 5.83325 7.08333C5.83325 7.77368 6.3929 8.33333 7.08325 8.33333Z" stroke="#F95800" stroke-width="1.4" stroke-linecap="round" stroke-linejoin="round"/>
<path d="M17.5001 12.5L13.3334 8.33334L4.16675 17.5" stroke="#F95800" stroke-width="1.4" stroke-linecap="round" stroke-linejoin="round"/>
</svg>
