<svg width="20" height="20" viewBox="0 0 20 20" fill="none" xmlns="http://www.w3.org/2000/svg">
<path d="M15.3335 17.5V15.8333C15.3335 14.9493 14.9823 14.1014 14.3572 13.4763C13.7321 12.8512 12.8842 12.5 12.0002 12.5H6.16683C5.28277 12.5 4.43493 12.8512 3.80981 13.4763C3.18469 14.1014 2.8335 14.9493 2.8335 15.8333V17.5" stroke="#666666" stroke-width="1.2" stroke-linecap="round" stroke-linejoin="round"/>
<path d="M9.08333 9.16667C10.9243 9.16667 12.4167 7.67428 12.4167 5.83333C12.4167 3.99238 10.9243 2.5 9.08333 2.5C7.24238 2.5 5.75 3.99238 5.75 5.83333C5.75 7.67428 7.24238 9.16667 9.08333 9.16667Z" stroke="#666666" stroke-width="1.2" stroke-linecap="round" stroke-linejoin="round"/>
<path d="M15 6.66666L19.1667 10.8333" stroke="#666666" stroke-width="1.2" stroke-linecap="round" stroke-linejoin="round"/>
<path d="M19.1667 6.66666L15 10.8333" stroke="#666666" stroke-width="1.2" stroke-linecap="round" stroke-linejoin="round"/>
</svg>
