<svg width="18" height="18" viewBox="0 0 18 18" fill="none" xmlns="http://www.w3.org/2000/svg">
<path d="M8.99984 0.666656C4.39984 0.666656 0.666504 4.39999 0.666504 8.99999C0.666504 13.6 4.39984 17.3333 8.99984 17.3333H13.1665V15.6667H8.99984C5.38317 15.6667 2.33317 12.6167 2.33317 8.99999C2.33317 5.38332 5.38317 2.33332 8.99984 2.33332C12.6165 2.33332 15.6665 5.38332 15.6665 8.99999V10.1917C15.6665 10.85 15.0748 11.5 14.4165 11.5C13.7582 11.5 13.1665 10.85 13.1665 10.1917V8.99999C13.1665 6.69999 11.2998 4.83332 8.99984 4.83332C6.69984 4.83332 4.83317 6.69999 4.83317 8.99999C4.83317 11.3 6.69984 13.1667 8.99984 13.1667C10.1498 13.1667 11.1998 12.7 11.9498 11.9417C12.4915 12.6833 13.4248 13.1667 14.4165 13.1667C16.0582 13.1667 17.3332 11.8333 17.3332 10.1917V8.99999C17.3332 4.39999 13.5998 0.666656 8.99984 0.666656ZM8.99984 11.5C7.6165 11.5 6.49984 10.3833 6.49984 8.99999C6.49984 7.61666 7.6165 6.49999 8.99984 6.49999C10.3832 6.49999 11.4998 7.61666 11.4998 8.99999C11.4998 10.3833 10.3832 11.5 8.99984 11.5Z" fill="black"/>
</svg>
