<svg width="30" height="20" viewBox="0 0 30 20" fill="none" xmlns="http://www.w3.org/2000/svg">
<g clip-path="url(#clip0)">
<path d="M9.65372 19.7938C12.2233 19.8101 14.6945 18.7883 16.5265 16.9519C18.3584 15.1155 19.4018 12.6143 19.4281 9.99567L16.0037 9.96687C15.9935 11.2307 15.6157 12.463 14.9183 13.508C14.2208 14.553 13.2349 15.3637 12.0853 15.8377C10.9357 16.3117 9.67403 16.4276 8.45977 16.1709C7.24551 15.9141 6.13323 15.2961 5.26359 14.3951C4.39396 13.4941 3.80602 12.3505 3.57413 11.109C3.34224 9.86748 3.47681 8.58376 3.96082 7.42017C4.44483 6.25658 5.25655 5.26539 6.29333 4.57194C7.33011 3.87849 8.54537 3.51393 9.78546 3.52436C10.0602 3.52667 10.5214 3.53055 10.5214 3.53055C11.2423 2.41051 12.1236 1.40669 13.1361 0.552433C12.0646 0.170883 10.9395 -0.0310829 9.80455 -0.0456029C8.5263 -0.0556956 7.25862 0.190891 6.07388 0.680079C4.88914 1.16927 3.81055 1.89147 2.89969 2.80547C1.98883 3.71946 1.26353 4.80734 0.76522 6.00699C0.266906 7.20664 0.00533078 8.49458 -0.00457269 9.79725C-0.0144762 11.0999 0.227489 12.3918 0.707504 13.5992C1.18752 14.8066 1.89619 15.9058 2.79304 16.8341C3.6899 17.7623 4.75738 18.5015 5.93453 19.0093C7.11169 19.5171 8.37547 19.7837 9.65372 19.7938Z" fill="#00D647"/>
<path d="M20.411 0.113467C17.8414 0.0971437 15.3701 1.11902 13.5382 2.95539C11.7063 4.79177 10.6629 7.29302 10.6365 9.91161L14.0512 9.94032C14.0633 8.67741 14.4425 7.4465 15.1407 6.40304C15.8388 5.35958 16.8248 4.55037 17.974 4.07761C19.1232 3.60486 20.3841 3.48976 21.5974 3.74685C22.8108 4.00394 23.9221 4.62169 24.7912 5.52208C25.6602 6.42247 26.248 7.56513 26.4802 8.80573C26.7124 10.0463 26.5787 11.3292 26.0959 12.4924C25.6131 13.6556 24.8029 14.6469 23.7676 15.3411C22.7323 16.0354 21.5184 16.4014 20.2791 16.3929C20.0044 16.3906 19.5432 16.3867 19.5432 16.3867C18.8224 17.5069 17.9411 18.5107 16.9285 19.3648C18.0015 19.7182 19.1233 19.8931 20.2509 19.8828C22.8233 19.9044 25.2988 18.8838 27.1328 17.0453C28.9668 15.2069 30.009 12.7013 30.0302 10.0797C30.0515 7.45812 29.0499 4.93532 27.246 3.06629C25.442 1.19726 22.9834 0.1351 20.411 0.113467" fill="#FFCB01"/>
</g>
<defs>
<clipPath id="clip0">
<rect width="30" height="20" fill="white"/>
</clipPath>
</defs>
</svg>
