<svg width="65" height="65" viewBox="0 0 65 65" fill="none" xmlns="http://www.w3.org/2000/svg">
<g filter="url(#filter0_d)">
<path d="M32.7213 55.831C47.1067 55.831 58.7683 44.1694 58.7683 29.784C58.7683 15.3986 47.1067 3.737 32.7213 3.737C18.336 3.737 6.67432 15.3986 6.67432 29.784C6.67432 44.1694 18.336 55.831 32.7213 55.831Z" fill="white"/>
</g>
<path d="M32.7212 19.784C30.7434 19.784 28.81 20.3705 27.1655 21.4693C25.521 22.5681 24.2393 24.1299 23.4824 25.9572C22.7255 27.7844 22.5275 29.7951 22.9133 31.7349C23.2992 33.6747 24.2516 35.4565 25.6501 36.8551C27.0487 38.2536 28.8305 39.206 30.7703 39.5919C32.7101 39.9777 34.7208 39.7797 36.548 39.0228C38.3753 38.2659 39.9371 36.9842 41.0359 35.3397C42.1347 33.6952 42.7212 31.7618 42.7212 29.784H40.7212C40.7212 31.3662 40.252 32.913 39.373 34.2286C38.4939 35.5442 37.2445 36.5695 35.7827 37.175C34.3209 37.7805 32.7123 37.939 31.1605 37.6303C29.6086 37.3216 28.1832 36.5597 27.0643 35.4409C25.9455 34.322 25.1836 32.8966 24.8749 31.3447C24.5662 29.7929 24.7247 28.1843 25.3302 26.7225C25.9357 25.2607 26.961 24.0113 28.2766 23.1322C29.5922 22.2532 31.1389 21.784 32.7212 21.784V19.784ZM39.5012 20.784C39.3213 20.7856 39.149 20.8574 39.0212 20.984L37.8012 22.194L40.3012 24.694L41.5212 23.484C41.6461 23.3575 41.7162 23.1868 41.7162 23.009C41.7162 22.8312 41.6461 22.6605 41.5212 22.534L39.9712 20.984C39.8472 20.8577 39.6782 20.7858 39.5012 20.784ZM37.0912 22.904L29.7212 30.284V32.784H32.2212L39.5912 25.404L37.0912 22.904Z" fill="#D3D8DA"/>
<defs>
<filter id="filter0_d" x="0.674316" y="0.737" width="64.094" height="64.094" filterUnits="userSpaceOnUse" color-interpolation-filters="sRGB">
<feFlood flood-opacity="0" result="BackgroundImageFix"/>
<feColorMatrix in="SourceAlpha" type="matrix" values="0 0 0 0 0 0 0 0 0 0 0 0 0 0 0 0 0 0 127 0"/>
<feOffset dy="3"/>
<feGaussianBlur stdDeviation="3"/>
<feColorMatrix type="matrix" values="0 0 0 0 0 0 0 0 0 0 0 0 0 0 0 0 0 0 0.161 0"/>
<feBlend mode="normal" in2="BackgroundImageFix" result="effect1_dropShadow"/>
<feBlend mode="normal" in="SourceGraphic" in2="effect1_dropShadow" result="shape"/>
</filter>
</defs>
</svg>
